<svg xmlns="http://www.w3.org/2000/svg" viewBox="0 0 483.53 490"><defs><style>.cls-1{fill:#fff;}</style></defs><title>Artboard 1</title><g id="svg2"><path class="cls-1" d="M194.64,205.78C180.16,192.31,164.19,186,144.39,186c-33.53,0-60.81,26-60.81,57.9s27.28,57.9,60.81,57.9l.83,0c18.39,1,32.61-4.11,46.1-16.48,12-10.95,21.77-26.22,31.88-42.63C214.38,228.74,205.45,215.84,194.64,205.78ZM175,250.54H118.75v-18.3H175Z"/><path class="cls-1" d="M339.14,186c-19.8,0-35.76,6.28-50.25,19.75-10.81,10.06-19.74,23-28.56,37,10.11,16.41,19.92,31.68,31.88,42.63,13.49,12.37,27.71,17.45,46.1,16.48l.83,0c33.54,0,60.82-26,60.82-57.9S372.68,186,339.14,186Zm21.3,64.16H343.32v17.26H325.49V250.19H308.37V232.46h17.12V215.33h17.83v17.13h17.12Z"/><path class="cls-1" d="M241.77,3.5C108.94,3.5,1.27,111.18,1.27,244s107.67,240.5,240.5,240.5S482.27,376.82,482.27,244,374.59,3.5,241.77,3.5Zm97.79,329.91c-1.84.09-3.67.14-5.47.14-24.25,0-45-8.18-63.22-24.9-11.27-10.32-20.56-23-29.1-36.12-8.55,13.15-17.84,25.8-29.11,36.12-19.6,18-42.07,26.07-68.69,24.76-50.75-.22-92-40.27-92-89.48s41.45-89.48,92.4-89.48c27.88,0,51.36,9.23,71.76,28.21,9.8,9.11,18.07,19.69,25.62,30.75,7.54-11.06,15.82-21.64,25.61-30.75,20.41-19,43.88-28.21,71.76-28.21,50.95,0,92.4,40.14,92.4,89.48S390.32,333.19,339.56,333.41Z"/></g></svg>